<mxfile host="app.diagrams.net" modified="2024-06-12T10:53:06.471Z" agent="Mozilla/5.0 (Windows NT 10.0; Win64; x64; rv:126.0) Gecko/20100101 Firefox/126.0" etag="IrF248xPcosL52GzEVfP" version="24.5.3" type="github">
  <diagram id="R2lEEEUBdFMjLlhIrx00" name="Page-1">
    <mxGraphModel dx="2625" dy="1323" grid="1" gridSize="10" guides="1" tooltips="1" connect="1" arrows="1" fold="1" page="1" pageScale="1" pageWidth="850" pageHeight="1100" math="0" shadow="0" extFonts="Permanent Marker^https://fonts.googleapis.com/css?family=Permanent+Marker">
      <root>
        <mxCell id="0" />
        <mxCell id="1" parent="0" />
        <mxCell id="-icy0jHn0rvIIJYfcfx7-45" style="edgeStyle=orthogonalEdgeStyle;rounded=0;orthogonalLoop=1;jettySize=auto;html=1;exitX=1;exitY=0.5;exitDx=0;exitDy=0;entryX=0;entryY=0.5;entryDx=0;entryDy=0;endArrow=none;endFill=0;" edge="1" parent="1" source="-icy0jHn0rvIIJYfcfx7-2" target="fr7ok5PWlqHTc7R7XnK3-97">
          <mxGeometry relative="1" as="geometry">
            <Array as="points">
              <mxPoint x="985" y="1000" />
              <mxPoint x="985" y="760" />
            </Array>
          </mxGeometry>
        </mxCell>
        <mxCell id="-icy0jHn0rvIIJYfcfx7-16" style="edgeStyle=orthogonalEdgeStyle;rounded=0;orthogonalLoop=1;jettySize=auto;html=1;exitX=1;exitY=0.5;exitDx=0;exitDy=0;entryX=0;entryY=0.5;entryDx=0;entryDy=0;endArrow=none;endFill=0;" edge="1" parent="1" source="-icy0jHn0rvIIJYfcfx7-10" target="fr7ok5PWlqHTc7R7XnK3-68">
          <mxGeometry relative="1" as="geometry" />
        </mxCell>
        <mxCell id="fr7ok5PWlqHTc7R7XnK3-13" style="edgeStyle=orthogonalEdgeStyle;rounded=0;orthogonalLoop=1;jettySize=auto;html=1;exitX=0;exitY=0.5;exitDx=0;exitDy=0;endArrow=none;endFill=0;" parent="1" source="fr7ok5PWlqHTc7R7XnK3-1" target="fr7ok5PWlqHTc7R7XnK3-12" edge="1">
          <mxGeometry relative="1" as="geometry" />
        </mxCell>
        <mxCell id="fr7ok5PWlqHTc7R7XnK3-14" style="edgeStyle=orthogonalEdgeStyle;rounded=0;orthogonalLoop=1;jettySize=auto;html=1;exitX=0.5;exitY=1;exitDx=0;exitDy=0;shape=link;" parent="1" source="fr7ok5PWlqHTc7R7XnK3-1" target="fr7ok5PWlqHTc7R7XnK3-11" edge="1">
          <mxGeometry relative="1" as="geometry" />
        </mxCell>
        <mxCell id="fr7ok5PWlqHTc7R7XnK3-36" style="edgeStyle=orthogonalEdgeStyle;rounded=0;orthogonalLoop=1;jettySize=auto;html=1;exitX=1;exitY=0.5;exitDx=0;exitDy=0;entryX=0;entryY=0.5;entryDx=0;entryDy=0;endArrow=none;endFill=0;" parent="1" source="fr7ok5PWlqHTc7R7XnK3-1" target="fr7ok5PWlqHTc7R7XnK3-35" edge="1">
          <mxGeometry relative="1" as="geometry" />
        </mxCell>
        <mxCell id="fr7ok5PWlqHTc7R7XnK3-38" value="1" style="edgeLabel;html=1;align=center;verticalAlign=middle;resizable=0;points=[];" parent="fr7ok5PWlqHTc7R7XnK3-36" vertex="1" connectable="0">
          <mxGeometry x="-0.5783" relative="1" as="geometry">
            <mxPoint as="offset" />
          </mxGeometry>
        </mxCell>
        <mxCell id="fr7ok5PWlqHTc7R7XnK3-1" value="Account" style="rounded=1;whiteSpace=wrap;html=1;fillColor=#d5e8d4;strokeColor=#82b366;" parent="1" vertex="1">
          <mxGeometry x="180" y="150" width="120" height="60" as="geometry" />
        </mxCell>
        <mxCell id="fr7ok5PWlqHTc7R7XnK3-49" style="edgeStyle=orthogonalEdgeStyle;rounded=0;orthogonalLoop=1;jettySize=auto;html=1;exitX=0.5;exitY=1;exitDx=0;exitDy=0;endArrow=none;endFill=0;" parent="1" source="fr7ok5PWlqHTc7R7XnK3-2" target="fr7ok5PWlqHTc7R7XnK3-48" edge="1">
          <mxGeometry relative="1" as="geometry" />
        </mxCell>
        <mxCell id="fr7ok5PWlqHTc7R7XnK3-51" value="[1..40]" style="edgeLabel;html=1;align=center;verticalAlign=middle;resizable=0;points=[];" parent="fr7ok5PWlqHTc7R7XnK3-49" vertex="1" connectable="0">
          <mxGeometry x="-0.4752" y="3" relative="1" as="geometry">
            <mxPoint as="offset" />
          </mxGeometry>
        </mxCell>
        <mxCell id="fr7ok5PWlqHTc7R7XnK3-88" style="edgeStyle=orthogonalEdgeStyle;rounded=0;orthogonalLoop=1;jettySize=auto;html=1;exitX=1;exitY=0.25;exitDx=0;exitDy=0;endArrow=none;endFill=0;" parent="1" source="fr7ok5PWlqHTc7R7XnK3-2" target="fr7ok5PWlqHTc7R7XnK3-87" edge="1">
          <mxGeometry relative="1" as="geometry">
            <Array as="points">
              <mxPoint x="400" y="430" />
            </Array>
          </mxGeometry>
        </mxCell>
        <mxCell id="fr7ok5PWlqHTc7R7XnK3-90" value="1" style="edgeLabel;html=1;align=center;verticalAlign=middle;resizable=0;points=[];" parent="fr7ok5PWlqHTc7R7XnK3-88" vertex="1" connectable="0">
          <mxGeometry x="-0.6648" y="2" relative="1" as="geometry">
            <mxPoint as="offset" />
          </mxGeometry>
        </mxCell>
        <mxCell id="fr7ok5PWlqHTc7R7XnK3-110" style="edgeStyle=orthogonalEdgeStyle;rounded=0;orthogonalLoop=1;jettySize=auto;html=1;exitX=1;exitY=0.75;exitDx=0;exitDy=0;endArrow=none;endFill=0;" parent="1" source="fr7ok5PWlqHTc7R7XnK3-2" target="fr7ok5PWlqHTc7R7XnK3-109" edge="1">
          <mxGeometry relative="1" as="geometry">
            <Array as="points">
              <mxPoint x="500" y="465" />
              <mxPoint x="500" y="610" />
              <mxPoint x="715" y="610" />
            </Array>
          </mxGeometry>
        </mxCell>
        <mxCell id="fr7ok5PWlqHTc7R7XnK3-112" value="1" style="edgeLabel;html=1;align=center;verticalAlign=middle;resizable=0;points=[];" parent="fr7ok5PWlqHTc7R7XnK3-110" vertex="1" connectable="0">
          <mxGeometry x="-0.8947" y="1" relative="1" as="geometry">
            <mxPoint x="-3" as="offset" />
          </mxGeometry>
        </mxCell>
        <mxCell id="-icy0jHn0rvIIJYfcfx7-4" style="edgeStyle=orthogonalEdgeStyle;rounded=0;orthogonalLoop=1;jettySize=auto;html=1;endArrow=none;endFill=0;" edge="1" parent="1" source="fr7ok5PWlqHTc7R7XnK3-2" target="-icy0jHn0rvIIJYfcfx7-2">
          <mxGeometry relative="1" as="geometry">
            <Array as="points">
              <mxPoint x="490" y="480" />
              <mxPoint x="490" y="660" />
              <mxPoint x="560" y="660" />
              <mxPoint x="560" y="1000" />
            </Array>
          </mxGeometry>
        </mxCell>
        <mxCell id="-icy0jHn0rvIIJYfcfx7-5" value="[0..*]" style="edgeLabel;html=1;align=center;verticalAlign=middle;resizable=0;points=[];" vertex="1" connectable="0" parent="-icy0jHn0rvIIJYfcfx7-4">
          <mxGeometry x="-0.9071" y="-1" relative="1" as="geometry">
            <mxPoint as="offset" />
          </mxGeometry>
        </mxCell>
        <mxCell id="-icy0jHn0rvIIJYfcfx7-14" style="edgeStyle=orthogonalEdgeStyle;rounded=0;orthogonalLoop=1;jettySize=auto;html=1;exitX=1;exitY=0;exitDx=0;exitDy=0;entryX=0;entryY=0.5;entryDx=0;entryDy=0;endArrow=none;endFill=0;" edge="1" parent="1" source="fr7ok5PWlqHTc7R7XnK3-2" target="-icy0jHn0rvIIJYfcfx7-10">
          <mxGeometry relative="1" as="geometry">
            <Array as="points">
              <mxPoint x="560" y="420" />
              <mxPoint x="560" y="340" />
            </Array>
          </mxGeometry>
        </mxCell>
        <mxCell id="-icy0jHn0rvIIJYfcfx7-15" value="[0..*]" style="edgeLabel;html=1;align=center;verticalAlign=middle;resizable=0;points=[];" vertex="1" connectable="0" parent="-icy0jHn0rvIIJYfcfx7-14">
          <mxGeometry x="-0.5197" y="2" relative="1" as="geometry">
            <mxPoint as="offset" />
          </mxGeometry>
        </mxCell>
        <mxCell id="fr7ok5PWlqHTc7R7XnK3-2" value="Client User" style="rounded=1;whiteSpace=wrap;html=1;fillColor=#d5e8d4;strokeColor=#82b366;" parent="1" vertex="1">
          <mxGeometry x="280" y="420" width="120" height="60" as="geometry" />
        </mxCell>
        <mxCell id="fr7ok5PWlqHTc7R7XnK3-3" value="Administrator" style="rounded=1;whiteSpace=wrap;html=1;fillColor=#d5e8d4;strokeColor=#82b366;" parent="1" vertex="1">
          <mxGeometry x="80" y="420" width="120" height="60" as="geometry" />
        </mxCell>
        <mxCell id="fr7ok5PWlqHTc7R7XnK3-15" style="edgeStyle=orthogonalEdgeStyle;rounded=0;orthogonalLoop=1;jettySize=auto;html=1;exitX=0.5;exitY=1;exitDx=0;exitDy=0;entryX=0.5;entryY=0;entryDx=0;entryDy=0;endArrow=none;endFill=0;" parent="1" source="fr7ok5PWlqHTc7R7XnK3-11" target="fr7ok5PWlqHTc7R7XnK3-3" edge="1">
          <mxGeometry relative="1" as="geometry" />
        </mxCell>
        <mxCell id="fr7ok5PWlqHTc7R7XnK3-18" value="U" style="edgeLabel;html=1;align=center;verticalAlign=middle;resizable=0;points=[];" parent="fr7ok5PWlqHTc7R7XnK3-15" vertex="1" connectable="0">
          <mxGeometry x="0.7238" y="1" relative="1" as="geometry">
            <mxPoint as="offset" />
          </mxGeometry>
        </mxCell>
        <mxCell id="fr7ok5PWlqHTc7R7XnK3-16" style="edgeStyle=orthogonalEdgeStyle;rounded=0;orthogonalLoop=1;jettySize=auto;html=1;exitX=0.5;exitY=1;exitDx=0;exitDy=0;endArrow=none;endFill=0;" parent="1" source="fr7ok5PWlqHTc7R7XnK3-11" target="fr7ok5PWlqHTc7R7XnK3-2" edge="1">
          <mxGeometry relative="1" as="geometry" />
        </mxCell>
        <mxCell id="fr7ok5PWlqHTc7R7XnK3-19" value="U" style="edgeLabel;html=1;align=center;verticalAlign=middle;resizable=0;points=[];" parent="fr7ok5PWlqHTc7R7XnK3-16" vertex="1" connectable="0">
          <mxGeometry x="0.7132" y="2" relative="1" as="geometry">
            <mxPoint as="offset" />
          </mxGeometry>
        </mxCell>
        <mxCell id="fr7ok5PWlqHTc7R7XnK3-11" value="d" style="ellipse;whiteSpace=wrap;html=1;aspect=fixed;fillColor=#008a00;strokeColor=#005700;fontColor=#ffffff;" parent="1" vertex="1">
          <mxGeometry x="220" y="270" width="40" height="40" as="geometry" />
        </mxCell>
        <mxCell id="fr7ok5PWlqHTc7R7XnK3-12" value="&lt;u&gt;account id&lt;/u&gt;" style="ellipse;whiteSpace=wrap;html=1;fillColor=#60a917;strokeColor=#2D7600;fontColor=#ffffff;" parent="1" vertex="1">
          <mxGeometry x="30" y="150" width="110" height="60" as="geometry" />
        </mxCell>
        <mxCell id="fr7ok5PWlqHTc7R7XnK3-23" style="edgeStyle=orthogonalEdgeStyle;rounded=0;orthogonalLoop=1;jettySize=auto;html=1;endArrow=none;endFill=0;" parent="1" source="fr7ok5PWlqHTc7R7XnK3-20" target="fr7ok5PWlqHTc7R7XnK3-1" edge="1">
          <mxGeometry relative="1" as="geometry">
            <Array as="points">
              <mxPoint x="155" y="125" />
              <mxPoint x="200" y="125" />
            </Array>
          </mxGeometry>
        </mxCell>
        <mxCell id="fr7ok5PWlqHTc7R7XnK3-20" value="username" style="ellipse;whiteSpace=wrap;html=1;fillColor=#60a917;strokeColor=#2D7600;fontColor=#ffffff;" parent="1" vertex="1">
          <mxGeometry x="100" y="40" width="110" height="60" as="geometry" />
        </mxCell>
        <mxCell id="fr7ok5PWlqHTc7R7XnK3-24" style="edgeStyle=orthogonalEdgeStyle;rounded=0;orthogonalLoop=1;jettySize=auto;html=1;exitX=0.5;exitY=1;exitDx=0;exitDy=0;endArrow=none;endFill=0;" parent="1" source="fr7ok5PWlqHTc7R7XnK3-21" target="fr7ok5PWlqHTc7R7XnK3-1" edge="1">
          <mxGeometry relative="1" as="geometry">
            <Array as="points">
              <mxPoint x="270" y="100" />
            </Array>
          </mxGeometry>
        </mxCell>
        <mxCell id="fr7ok5PWlqHTc7R7XnK3-21" value="email" style="ellipse;whiteSpace=wrap;html=1;fillColor=#60a917;strokeColor=#2D7600;fontColor=#ffffff;" parent="1" vertex="1">
          <mxGeometry x="220" y="40" width="110" height="60" as="geometry" />
        </mxCell>
        <mxCell id="fr7ok5PWlqHTc7R7XnK3-25" style="edgeStyle=orthogonalEdgeStyle;rounded=0;orthogonalLoop=1;jettySize=auto;html=1;exitX=0.5;exitY=1;exitDx=0;exitDy=0;entryX=1;entryY=0.25;entryDx=0;entryDy=0;endArrow=none;endFill=0;" parent="1" source="fr7ok5PWlqHTc7R7XnK3-22" target="fr7ok5PWlqHTc7R7XnK3-1" edge="1">
          <mxGeometry relative="1" as="geometry">
            <Array as="points">
              <mxPoint x="340" y="100" />
              <mxPoint x="340" y="130" />
              <mxPoint x="300" y="130" />
            </Array>
          </mxGeometry>
        </mxCell>
        <mxCell id="fr7ok5PWlqHTc7R7XnK3-22" value="password" style="ellipse;whiteSpace=wrap;html=1;fillColor=#60a917;strokeColor=#2D7600;fontColor=#ffffff;" parent="1" vertex="1">
          <mxGeometry x="350" y="60" width="110" height="60" as="geometry" />
        </mxCell>
        <mxCell id="fr7ok5PWlqHTc7R7XnK3-27" style="edgeStyle=orthogonalEdgeStyle;rounded=0;orthogonalLoop=1;jettySize=auto;html=1;exitX=0.5;exitY=0;exitDx=0;exitDy=0;endArrow=none;endFill=0;" parent="1" source="fr7ok5PWlqHTc7R7XnK3-26" target="fr7ok5PWlqHTc7R7XnK3-3" edge="1">
          <mxGeometry relative="1" as="geometry" />
        </mxCell>
        <mxCell id="fr7ok5PWlqHTc7R7XnK3-26" value="&lt;u&gt;admin id&lt;/u&gt;" style="ellipse;whiteSpace=wrap;html=1;fillColor=#60a917;fontColor=#ffffff;strokeColor=#2D7600;" parent="1" vertex="1">
          <mxGeometry x="85" y="540" width="110" height="60" as="geometry" />
        </mxCell>
        <mxCell id="fr7ok5PWlqHTc7R7XnK3-29" style="edgeStyle=orthogonalEdgeStyle;rounded=0;orthogonalLoop=1;jettySize=auto;html=1;endArrow=none;endFill=0;" parent="1" source="fr7ok5PWlqHTc7R7XnK3-28" target="fr7ok5PWlqHTc7R7XnK3-2" edge="1">
          <mxGeometry relative="1" as="geometry">
            <Array as="points">
              <mxPoint x="265" y="510" />
              <mxPoint x="300" y="510" />
            </Array>
          </mxGeometry>
        </mxCell>
        <mxCell id="fr7ok5PWlqHTc7R7XnK3-28" value="&lt;u&gt;user id&lt;/u&gt;" style="ellipse;whiteSpace=wrap;html=1;fillColor=#60a917;fontColor=#ffffff;strokeColor=#2D7600;" parent="1" vertex="1">
          <mxGeometry x="210" y="540" width="110" height="60" as="geometry" />
        </mxCell>
        <mxCell id="fr7ok5PWlqHTc7R7XnK3-33" style="edgeStyle=orthogonalEdgeStyle;rounded=0;orthogonalLoop=1;jettySize=auto;html=1;endArrow=none;endFill=0;" parent="1" source="fr7ok5PWlqHTc7R7XnK3-30" target="fr7ok5PWlqHTc7R7XnK3-2" edge="1">
          <mxGeometry relative="1" as="geometry">
            <Array as="points">
              <mxPoint x="435" y="375" />
              <mxPoint x="380" y="375" />
            </Array>
          </mxGeometry>
        </mxCell>
        <mxCell id="fr7ok5PWlqHTc7R7XnK3-30" value="age" style="ellipse;whiteSpace=wrap;html=1;fillColor=#60a917;fontColor=#ffffff;strokeColor=#2D7600;" parent="1" vertex="1">
          <mxGeometry x="380" y="300" width="110" height="60" as="geometry" />
        </mxCell>
        <mxCell id="fr7ok5PWlqHTc7R7XnK3-32" style="edgeStyle=orthogonalEdgeStyle;rounded=0;orthogonalLoop=1;jettySize=auto;html=1;endArrow=none;endFill=0;" parent="1" source="fr7ok5PWlqHTc7R7XnK3-31" target="fr7ok5PWlqHTc7R7XnK3-2" edge="1">
          <mxGeometry relative="1" as="geometry">
            <Array as="points">
              <mxPoint x="415" y="510" />
              <mxPoint x="390" y="510" />
            </Array>
          </mxGeometry>
        </mxCell>
        <mxCell id="fr7ok5PWlqHTc7R7XnK3-31" value="description" style="ellipse;whiteSpace=wrap;html=1;fillColor=#60a917;fontColor=#ffffff;strokeColor=#2D7600;" parent="1" vertex="1">
          <mxGeometry x="360" y="540" width="110" height="60" as="geometry" />
        </mxCell>
        <mxCell id="fr7ok5PWlqHTc7R7XnK3-43" style="edgeStyle=orthogonalEdgeStyle;rounded=0;orthogonalLoop=1;jettySize=auto;html=1;exitX=0.25;exitY=0;exitDx=0;exitDy=0;endArrow=none;endFill=0;" parent="1" source="fr7ok5PWlqHTc7R7XnK3-34" target="fr7ok5PWlqHTc7R7XnK3-42" edge="1">
          <mxGeometry relative="1" as="geometry" />
        </mxCell>
        <mxCell id="fr7ok5PWlqHTc7R7XnK3-45" style="edgeStyle=orthogonalEdgeStyle;rounded=0;orthogonalLoop=1;jettySize=auto;html=1;exitX=0.75;exitY=0;exitDx=0;exitDy=0;endArrow=none;endFill=0;" parent="1" source="fr7ok5PWlqHTc7R7XnK3-34" target="fr7ok5PWlqHTc7R7XnK3-44" edge="1">
          <mxGeometry relative="1" as="geometry" />
        </mxCell>
        <mxCell id="fr7ok5PWlqHTc7R7XnK3-47" style="edgeStyle=orthogonalEdgeStyle;rounded=0;orthogonalLoop=1;jettySize=auto;html=1;exitX=0.5;exitY=1;exitDx=0;exitDy=0;endArrow=none;endFill=0;" parent="1" source="fr7ok5PWlqHTc7R7XnK3-34" target="fr7ok5PWlqHTc7R7XnK3-46" edge="1">
          <mxGeometry relative="1" as="geometry">
            <Array as="points">
              <mxPoint x="740" y="230" />
              <mxPoint x="740" y="230" />
            </Array>
          </mxGeometry>
        </mxCell>
        <mxCell id="fr7ok5PWlqHTc7R7XnK3-84" style="edgeStyle=orthogonalEdgeStyle;rounded=0;orthogonalLoop=1;jettySize=auto;html=1;exitX=1;exitY=0.5;exitDx=0;exitDy=0;entryX=0;entryY=0.5;entryDx=0;entryDy=0;endArrow=none;endFill=0;" parent="1" source="fr7ok5PWlqHTc7R7XnK3-34" target="fr7ok5PWlqHTc7R7XnK3-82" edge="1">
          <mxGeometry relative="1" as="geometry" />
        </mxCell>
        <mxCell id="fr7ok5PWlqHTc7R7XnK3-85" value="[0..1]" style="edgeLabel;html=1;align=center;verticalAlign=middle;resizable=0;points=[];" parent="fr7ok5PWlqHTc7R7XnK3-84" vertex="1" connectable="0">
          <mxGeometry x="-0.7" y="-3" relative="1" as="geometry">
            <mxPoint x="4" y="-3" as="offset" />
          </mxGeometry>
        </mxCell>
        <mxCell id="fr7ok5PWlqHTc7R7XnK3-34" value="Picture" style="rounded=1;whiteSpace=wrap;html=1;fillColor=#0050ef;strokeColor=#001DBC;fontColor=#ffffff;" parent="1" vertex="1">
          <mxGeometry x="705" y="150" width="120" height="60" as="geometry" />
        </mxCell>
        <mxCell id="fr7ok5PWlqHTc7R7XnK3-37" style="edgeStyle=orthogonalEdgeStyle;rounded=0;orthogonalLoop=1;jettySize=auto;html=1;exitX=1;exitY=0.5;exitDx=0;exitDy=0;endArrow=none;endFill=0;" parent="1" source="fr7ok5PWlqHTc7R7XnK3-35" target="fr7ok5PWlqHTc7R7XnK3-34" edge="1">
          <mxGeometry relative="1" as="geometry" />
        </mxCell>
        <mxCell id="fr7ok5PWlqHTc7R7XnK3-39" value="[0..1]" style="edgeLabel;html=1;align=center;verticalAlign=middle;resizable=0;points=[];" parent="fr7ok5PWlqHTc7R7XnK3-37" vertex="1" connectable="0">
          <mxGeometry x="0.5312" relative="1" as="geometry">
            <mxPoint as="offset" />
          </mxGeometry>
        </mxCell>
        <mxCell id="fr7ok5PWlqHTc7R7XnK3-35" value="contains" style="rhombus;whiteSpace=wrap;html=1;fillColor=#008a00;fontColor=#ffffff;strokeColor=#005700;" parent="1" vertex="1">
          <mxGeometry x="450" y="140" width="90" height="80" as="geometry" />
        </mxCell>
        <mxCell id="fr7ok5PWlqHTc7R7XnK3-57" style="edgeStyle=orthogonalEdgeStyle;rounded=0;orthogonalLoop=1;jettySize=auto;html=1;exitX=1;exitY=0.5;exitDx=0;exitDy=0;endArrow=none;endFill=0;" parent="1" source="fr7ok5PWlqHTc7R7XnK3-40" target="fr7ok5PWlqHTc7R7XnK3-55" edge="1">
          <mxGeometry relative="1" as="geometry" />
        </mxCell>
        <mxCell id="fr7ok5PWlqHTc7R7XnK3-64" style="edgeStyle=orthogonalEdgeStyle;rounded=0;orthogonalLoop=1;jettySize=auto;html=1;exitX=0.5;exitY=1;exitDx=0;exitDy=0;endArrow=none;endFill=0;shape=link;" parent="1" source="fr7ok5PWlqHTc7R7XnK3-40" target="fr7ok5PWlqHTc7R7XnK3-63" edge="1">
          <mxGeometry relative="1" as="geometry" />
        </mxCell>
        <mxCell id="fr7ok5PWlqHTc7R7XnK3-67" value="[0..*]" style="edgeLabel;html=1;align=center;verticalAlign=middle;resizable=0;points=[];" parent="fr7ok5PWlqHTc7R7XnK3-64" vertex="1" connectable="0">
          <mxGeometry x="0.2629" y="-1" relative="1" as="geometry">
            <mxPoint as="offset" />
          </mxGeometry>
        </mxCell>
        <mxCell id="fr7ok5PWlqHTc7R7XnK3-40" value="Course" style="rounded=1;whiteSpace=wrap;html=1;fillColor=#e51400;strokeColor=#B20000;fontColor=#ffffff;" parent="1" vertex="1">
          <mxGeometry x="280" y="760" width="120" height="60" as="geometry" />
        </mxCell>
        <mxCell id="fr7ok5PWlqHTc7R7XnK3-42" value="&lt;u&gt;picture_id&lt;/u&gt;" style="ellipse;whiteSpace=wrap;html=1;fillColor=#003294;strokeColor=#001DBC;fontColor=#ffffff;" parent="1" vertex="1">
          <mxGeometry x="590" y="50" width="110" height="60" as="geometry" />
        </mxCell>
        <mxCell id="fr7ok5PWlqHTc7R7XnK3-44" value="name" style="ellipse;whiteSpace=wrap;html=1;fillColor=#003294;strokeColor=#2D7600;fontColor=#ffffff;" parent="1" vertex="1">
          <mxGeometry x="840" y="50" width="110" height="60" as="geometry" />
        </mxCell>
        <mxCell id="fr7ok5PWlqHTc7R7XnK3-46" value="image_data" style="ellipse;whiteSpace=wrap;html=1;fillColor=#003294;strokeColor=#2D7600;fontColor=#ffffff;" parent="1" vertex="1">
          <mxGeometry x="710" y="230" width="110" height="60" as="geometry" />
        </mxCell>
        <mxCell id="fr7ok5PWlqHTc7R7XnK3-50" style="edgeStyle=orthogonalEdgeStyle;rounded=0;orthogonalLoop=1;jettySize=auto;html=1;exitX=0.5;exitY=1;exitDx=0;exitDy=0;endArrow=none;endFill=0;" parent="1" source="fr7ok5PWlqHTc7R7XnK3-48" target="fr7ok5PWlqHTc7R7XnK3-40" edge="1">
          <mxGeometry relative="1" as="geometry" />
        </mxCell>
        <mxCell id="fr7ok5PWlqHTc7R7XnK3-52" value="1" style="edgeLabel;html=1;align=center;verticalAlign=middle;resizable=0;points=[];" parent="fr7ok5PWlqHTc7R7XnK3-50" vertex="1" connectable="0">
          <mxGeometry x="0.4721" y="1" relative="1" as="geometry">
            <mxPoint as="offset" />
          </mxGeometry>
        </mxCell>
        <mxCell id="fr7ok5PWlqHTc7R7XnK3-48" value="studies in" style="rhombus;whiteSpace=wrap;html=1;fillColor=#008a00;fontColor=#ffffff;strokeColor=#005700;" parent="1" vertex="1">
          <mxGeometry x="295" y="590" width="90" height="80" as="geometry" />
        </mxCell>
        <mxCell id="fr7ok5PWlqHTc7R7XnK3-54" value="" style="edgeStyle=orthogonalEdgeStyle;rounded=0;orthogonalLoop=1;jettySize=auto;html=1;endArrow=none;endFill=0;" parent="1" source="fr7ok5PWlqHTc7R7XnK3-53" target="fr7ok5PWlqHTc7R7XnK3-40" edge="1">
          <mxGeometry relative="1" as="geometry" />
        </mxCell>
        <mxCell id="fr7ok5PWlqHTc7R7XnK3-53" value="&lt;u&gt;course id&lt;/u&gt;" style="ellipse;whiteSpace=wrap;html=1;fillColor=#660900;fontColor=#ffffff;strokeColor=#B20000;" parent="1" vertex="1">
          <mxGeometry x="129" y="760" width="110" height="60" as="geometry" />
        </mxCell>
        <mxCell id="fr7ok5PWlqHTc7R7XnK3-55" value="name" style="ellipse;whiteSpace=wrap;html=1;fillColor=#660900;fontColor=#ffffff;strokeColor=#B20000;" parent="1" vertex="1">
          <mxGeometry x="438" y="760" width="110" height="60" as="geometry" />
        </mxCell>
        <mxCell id="fr7ok5PWlqHTc7R7XnK3-58" style="edgeStyle=orthogonalEdgeStyle;rounded=0;orthogonalLoop=1;jettySize=auto;html=1;exitX=1;exitY=0.5;exitDx=0;exitDy=0;endArrow=none;endFill=0;" parent="1" source="fr7ok5PWlqHTc7R7XnK3-59" target="fr7ok5PWlqHTc7R7XnK3-62" edge="1">
          <mxGeometry relative="1" as="geometry" />
        </mxCell>
        <mxCell id="fr7ok5PWlqHTc7R7XnK3-65" style="edgeStyle=orthogonalEdgeStyle;rounded=0;orthogonalLoop=1;jettySize=auto;html=1;entryX=0.5;entryY=1;entryDx=0;entryDy=0;endArrow=none;endFill=0;" parent="1" source="fr7ok5PWlqHTc7R7XnK3-59" target="fr7ok5PWlqHTc7R7XnK3-63" edge="1">
          <mxGeometry relative="1" as="geometry" />
        </mxCell>
        <mxCell id="fr7ok5PWlqHTc7R7XnK3-66" value="1" style="edgeLabel;html=1;align=center;verticalAlign=middle;resizable=0;points=[];" parent="fr7ok5PWlqHTc7R7XnK3-65" vertex="1" connectable="0">
          <mxGeometry x="-0.5071" y="-3" relative="1" as="geometry">
            <mxPoint as="offset" />
          </mxGeometry>
        </mxCell>
        <mxCell id="fr7ok5PWlqHTc7R7XnK3-59" value="Faculty" style="rounded=1;whiteSpace=wrap;html=1;fillColor=#e51400;strokeColor=#B20000;fontColor=#ffffff;" parent="1" vertex="1">
          <mxGeometry x="280" y="970" width="120" height="60" as="geometry" />
        </mxCell>
        <mxCell id="fr7ok5PWlqHTc7R7XnK3-60" value="" style="edgeStyle=orthogonalEdgeStyle;rounded=0;orthogonalLoop=1;jettySize=auto;html=1;endArrow=none;endFill=0;" parent="1" source="fr7ok5PWlqHTc7R7XnK3-61" target="fr7ok5PWlqHTc7R7XnK3-59" edge="1">
          <mxGeometry relative="1" as="geometry" />
        </mxCell>
        <mxCell id="fr7ok5PWlqHTc7R7XnK3-61" value="&lt;u&gt;faculty id&lt;/u&gt;" style="ellipse;whiteSpace=wrap;html=1;fillColor=#660900;fontColor=#ffffff;strokeColor=#B20000;" parent="1" vertex="1">
          <mxGeometry x="130" y="970" width="110" height="60" as="geometry" />
        </mxCell>
        <mxCell id="fr7ok5PWlqHTc7R7XnK3-62" value="name" style="ellipse;whiteSpace=wrap;html=1;fillColor=#660900;fontColor=#ffffff;strokeColor=#B20000;" parent="1" vertex="1">
          <mxGeometry x="438" y="970" width="110" height="60" as="geometry" />
        </mxCell>
        <mxCell id="fr7ok5PWlqHTc7R7XnK3-63" value="is located in" style="rhombus;whiteSpace=wrap;html=1;fillColor=#008a00;fontColor=#ffffff;strokeColor=#005700;" parent="1" vertex="1">
          <mxGeometry x="295" y="850" width="90" height="80" as="geometry" />
        </mxCell>
        <mxCell id="fr7ok5PWlqHTc7R7XnK3-99" style="edgeStyle=orthogonalEdgeStyle;rounded=0;orthogonalLoop=1;jettySize=auto;html=1;exitX=0.5;exitY=1;exitDx=0;exitDy=0;endArrow=none;endFill=0;" parent="1" source="fr7ok5PWlqHTc7R7XnK3-68" target="fr7ok5PWlqHTc7R7XnK3-98" edge="1">
          <mxGeometry relative="1" as="geometry" />
        </mxCell>
        <mxCell id="fr7ok5PWlqHTc7R7XnK3-102" value="1" style="edgeLabel;html=1;align=center;verticalAlign=middle;resizable=0;points=[];" parent="fr7ok5PWlqHTc7R7XnK3-99" vertex="1" connectable="0">
          <mxGeometry x="-0.4214" y="1" relative="1" as="geometry">
            <mxPoint as="offset" />
          </mxGeometry>
        </mxCell>
        <mxCell id="-icy0jHn0rvIIJYfcfx7-18" style="edgeStyle=orthogonalEdgeStyle;rounded=0;orthogonalLoop=1;jettySize=auto;html=1;exitX=0.75;exitY=0;exitDx=0;exitDy=0;endArrow=none;endFill=0;" edge="1" parent="1" source="fr7ok5PWlqHTc7R7XnK3-68" target="fr7ok5PWlqHTc7R7XnK3-69">
          <mxGeometry relative="1" as="geometry" />
        </mxCell>
        <mxCell id="-icy0jHn0rvIIJYfcfx7-19" style="edgeStyle=orthogonalEdgeStyle;rounded=0;orthogonalLoop=1;jettySize=auto;html=1;exitX=1;exitY=0;exitDx=0;exitDy=0;endArrow=none;endFill=0;" edge="1" parent="1" source="fr7ok5PWlqHTc7R7XnK3-68" target="fr7ok5PWlqHTc7R7XnK3-70">
          <mxGeometry relative="1" as="geometry" />
        </mxCell>
        <mxCell id="-icy0jHn0rvIIJYfcfx7-20" style="edgeStyle=orthogonalEdgeStyle;rounded=0;orthogonalLoop=1;jettySize=auto;html=1;exitX=1;exitY=0.5;exitDx=0;exitDy=0;endArrow=none;endFill=0;" edge="1" parent="1" source="fr7ok5PWlqHTc7R7XnK3-68" target="fr7ok5PWlqHTc7R7XnK3-71">
          <mxGeometry relative="1" as="geometry" />
        </mxCell>
        <mxCell id="-icy0jHn0rvIIJYfcfx7-22" style="edgeStyle=orthogonalEdgeStyle;rounded=0;orthogonalLoop=1;jettySize=auto;html=1;exitX=0.75;exitY=1;exitDx=0;exitDy=0;endArrow=none;endFill=0;" edge="1" parent="1" source="fr7ok5PWlqHTc7R7XnK3-68" target="fr7ok5PWlqHTc7R7XnK3-73">
          <mxGeometry relative="1" as="geometry" />
        </mxCell>
        <mxCell id="-icy0jHn0rvIIJYfcfx7-23" style="edgeStyle=orthogonalEdgeStyle;rounded=0;orthogonalLoop=1;jettySize=auto;html=1;exitX=0;exitY=1;exitDx=0;exitDy=0;endArrow=none;endFill=0;" edge="1" parent="1" source="fr7ok5PWlqHTc7R7XnK3-68" target="fr7ok5PWlqHTc7R7XnK3-75">
          <mxGeometry relative="1" as="geometry" />
        </mxCell>
        <mxCell id="fr7ok5PWlqHTc7R7XnK3-68" value="Post" style="rounded=1;whiteSpace=wrap;html=1;fillColor=#6a00ff;strokeColor=#3700CC;fontColor=#ffffff;" parent="1" vertex="1">
          <mxGeometry x="1160" y="440" width="120" height="60" as="geometry" />
        </mxCell>
        <mxCell id="fr7ok5PWlqHTc7R7XnK3-69" value="&lt;u&gt;post id&lt;/u&gt;" style="ellipse;whiteSpace=wrap;html=1;fillColor=#d80073;strokeColor=#A50040;fontColor=#ffffff;" parent="1" vertex="1">
          <mxGeometry x="1230" y="310" width="110" height="60" as="geometry" />
        </mxCell>
        <mxCell id="fr7ok5PWlqHTc7R7XnK3-70" value="title" style="ellipse;whiteSpace=wrap;html=1;fillColor=#d80073;strokeColor=#A50040;fontColor=#ffffff;" parent="1" vertex="1">
          <mxGeometry x="1360" y="340" width="110" height="60" as="geometry" />
        </mxCell>
        <mxCell id="fr7ok5PWlqHTc7R7XnK3-71" value="description" style="ellipse;whiteSpace=wrap;html=1;fillColor=#d80073;strokeColor=#A50040;fontColor=#ffffff;" parent="1" vertex="1">
          <mxGeometry x="1360" y="440" width="110" height="60" as="geometry" />
        </mxCell>
        <mxCell id="fr7ok5PWlqHTc7R7XnK3-73" value="timestamp" style="ellipse;whiteSpace=wrap;html=1;fillColor=#d80073;strokeColor=#A50040;fontColor=#ffffff;" parent="1" vertex="1">
          <mxGeometry x="1320" y="550" width="110" height="60" as="geometry" />
        </mxCell>
        <mxCell id="-icy0jHn0rvIIJYfcfx7-17" style="edgeStyle=orthogonalEdgeStyle;rounded=0;orthogonalLoop=1;jettySize=auto;html=1;exitX=1;exitY=1;exitDx=0;exitDy=0;entryX=0;entryY=0;entryDx=0;entryDy=0;endArrow=none;endFill=0;" edge="1" parent="1" source="fr7ok5PWlqHTc7R7XnK3-74" target="fr7ok5PWlqHTc7R7XnK3-68">
          <mxGeometry relative="1" as="geometry" />
        </mxCell>
        <mxCell id="fr7ok5PWlqHTc7R7XnK3-74" value="likes" style="ellipse;whiteSpace=wrap;html=1;fillColor=#d80073;strokeColor=#A50040;fontColor=#ffffff;" parent="1" vertex="1">
          <mxGeometry x="1030" y="320" width="110" height="60" as="geometry" />
        </mxCell>
        <mxCell id="fr7ok5PWlqHTc7R7XnK3-75" value="tags" style="ellipse;shape=doubleEllipse;whiteSpace=wrap;html=1;fillColor=#d80073;fontColor=#ffffff;strokeColor=#FFFFFF;" parent="1" vertex="1">
          <mxGeometry x="1020" y="540" width="100" height="60" as="geometry" />
        </mxCell>
        <mxCell id="fr7ok5PWlqHTc7R7XnK3-83" style="edgeStyle=orthogonalEdgeStyle;rounded=0;orthogonalLoop=1;jettySize=auto;html=1;endArrow=none;endFill=0;" parent="1" source="fr7ok5PWlqHTc7R7XnK3-82" target="fr7ok5PWlqHTc7R7XnK3-68" edge="1">
          <mxGeometry relative="1" as="geometry" />
        </mxCell>
        <mxCell id="fr7ok5PWlqHTc7R7XnK3-86" value="1" style="edgeLabel;html=1;align=center;verticalAlign=middle;resizable=0;points=[];" parent="fr7ok5PWlqHTc7R7XnK3-83" vertex="1" connectable="0">
          <mxGeometry x="0.8075" y="-2" relative="1" as="geometry">
            <mxPoint y="-1" as="offset" />
          </mxGeometry>
        </mxCell>
        <mxCell id="fr7ok5PWlqHTc7R7XnK3-82" value="includes" style="rhombus;whiteSpace=wrap;html=1;fillColor=#008a00;fontColor=#ffffff;strokeColor=#005700;" parent="1" vertex="1">
          <mxGeometry x="1025" y="140" width="90" height="80" as="geometry" />
        </mxCell>
        <mxCell id="fr7ok5PWlqHTc7R7XnK3-89" style="edgeStyle=orthogonalEdgeStyle;rounded=0;orthogonalLoop=1;jettySize=auto;html=1;endArrow=none;endFill=0;" parent="1" edge="1" target="fr7ok5PWlqHTc7R7XnK3-68" source="fr7ok5PWlqHTc7R7XnK3-87">
          <mxGeometry relative="1" as="geometry">
            <mxPoint x="679.5159090909087" y="430.02969696969694" as="sourcePoint" />
            <mxPoint x="890" y="430" as="targetPoint" />
            <Array as="points" />
          </mxGeometry>
        </mxCell>
        <mxCell id="fr7ok5PWlqHTc7R7XnK3-92" style="edgeStyle=orthogonalEdgeStyle;rounded=0;orthogonalLoop=1;jettySize=auto;html=1;endArrow=none;endFill=0;entryX=0;entryY=0.5;entryDx=0;entryDy=0;" parent="1" source="fr7ok5PWlqHTc7R7XnK3-2" target="fr7ok5PWlqHTc7R7XnK3-96" edge="1">
          <mxGeometry relative="1" as="geometry">
            <mxPoint x="390" y="440" as="sourcePoint" />
            <Array as="points">
              <mxPoint x="525" y="450" />
              <mxPoint x="525" y="520" />
            </Array>
          </mxGeometry>
        </mxCell>
        <mxCell id="fr7ok5PWlqHTc7R7XnK3-93" value="[0..*]" style="edgeLabel;html=1;align=center;verticalAlign=middle;resizable=0;points=[];" parent="fr7ok5PWlqHTc7R7XnK3-92" vertex="1" connectable="0">
          <mxGeometry x="-0.6648" y="2" relative="1" as="geometry">
            <mxPoint x="-14" as="offset" />
          </mxGeometry>
        </mxCell>
        <mxCell id="fr7ok5PWlqHTc7R7XnK3-94" style="edgeStyle=orthogonalEdgeStyle;rounded=0;orthogonalLoop=1;jettySize=auto;html=1;endArrow=none;endFill=0;entryX=0;entryY=0.5;entryDx=0;entryDy=0;exitX=1;exitY=0.5;exitDx=0;exitDy=0;" parent="1" source="fr7ok5PWlqHTc7R7XnK3-96" target="fr7ok5PWlqHTc7R7XnK3-68" edge="1">
          <mxGeometry relative="1" as="geometry">
            <mxPoint x="674.3959090909087" y="530.0296969696969" as="sourcePoint" />
            <mxPoint x="884.4300000000002" y="550.0296969696969" as="targetPoint" />
          </mxGeometry>
        </mxCell>
        <mxCell id="fr7ok5PWlqHTc7R7XnK3-95" value="[0..*]" style="edgeLabel;html=1;align=center;verticalAlign=middle;resizable=0;points=[];" parent="fr7ok5PWlqHTc7R7XnK3-94" vertex="1" connectable="0">
          <mxGeometry x="0.6566" y="1" relative="1" as="geometry">
            <mxPoint x="29" as="offset" />
          </mxGeometry>
        </mxCell>
        <mxCell id="fr7ok5PWlqHTc7R7XnK3-96" value="saves" style="rhombus;whiteSpace=wrap;html=1;fillColor=#008a00;fontColor=#ffffff;strokeColor=#005700;" parent="1" vertex="1">
          <mxGeometry x="720" y="480" width="90" height="80" as="geometry" />
        </mxCell>
        <mxCell id="fr7ok5PWlqHTc7R7XnK3-107" style="edgeStyle=orthogonalEdgeStyle;rounded=0;orthogonalLoop=1;jettySize=auto;html=1;exitX=1;exitY=0.5;exitDx=0;exitDy=0;endArrow=none;endFill=0;" parent="1" source="fr7ok5PWlqHTc7R7XnK3-97" target="fr7ok5PWlqHTc7R7XnK3-103" edge="1">
          <mxGeometry relative="1" as="geometry" />
        </mxCell>
        <mxCell id="-icy0jHn0rvIIJYfcfx7-25" style="edgeStyle=orthogonalEdgeStyle;rounded=0;orthogonalLoop=1;jettySize=auto;html=1;exitX=0.25;exitY=0;exitDx=0;exitDy=0;endArrow=none;endFill=0;" edge="1" parent="1" source="fr7ok5PWlqHTc7R7XnK3-97" target="fr7ok5PWlqHTc7R7XnK3-104">
          <mxGeometry relative="1" as="geometry" />
        </mxCell>
        <mxCell id="-icy0jHn0rvIIJYfcfx7-26" style="edgeStyle=orthogonalEdgeStyle;rounded=0;orthogonalLoop=1;jettySize=auto;html=1;exitX=1;exitY=0.75;exitDx=0;exitDy=0;endArrow=none;endFill=0;" edge="1" parent="1" source="fr7ok5PWlqHTc7R7XnK3-97" target="fr7ok5PWlqHTc7R7XnK3-105">
          <mxGeometry relative="1" as="geometry" />
        </mxCell>
        <mxCell id="-icy0jHn0rvIIJYfcfx7-28" style="edgeStyle=orthogonalEdgeStyle;rounded=0;orthogonalLoop=1;jettySize=auto;html=1;exitX=0;exitY=1;exitDx=0;exitDy=0;endArrow=none;endFill=0;" edge="1" parent="1" source="fr7ok5PWlqHTc7R7XnK3-97" target="-icy0jHn0rvIIJYfcfx7-27">
          <mxGeometry relative="1" as="geometry" />
        </mxCell>
        <mxCell id="fr7ok5PWlqHTc7R7XnK3-97" value="Comment" style="rounded=1;whiteSpace=wrap;html=1;fillColor=#6a00ff;strokeColor=#3700CC;fontColor=#ffffff;" parent="1" vertex="1">
          <mxGeometry x="1160" y="730" width="120" height="60" as="geometry" />
        </mxCell>
        <mxCell id="fr7ok5PWlqHTc7R7XnK3-100" style="edgeStyle=orthogonalEdgeStyle;rounded=0;orthogonalLoop=1;jettySize=auto;html=1;exitX=0.5;exitY=1;exitDx=0;exitDy=0;endArrow=none;endFill=0;shape=link;" parent="1" source="fr7ok5PWlqHTc7R7XnK3-98" target="fr7ok5PWlqHTc7R7XnK3-97" edge="1">
          <mxGeometry relative="1" as="geometry" />
        </mxCell>
        <mxCell id="fr7ok5PWlqHTc7R7XnK3-101" value="[0..*]" style="edgeLabel;html=1;align=center;verticalAlign=middle;resizable=0;points=[];" parent="fr7ok5PWlqHTc7R7XnK3-100" vertex="1" connectable="0">
          <mxGeometry x="0.5302" y="1" relative="1" as="geometry">
            <mxPoint as="offset" />
          </mxGeometry>
        </mxCell>
        <mxCell id="fr7ok5PWlqHTc7R7XnK3-98" value="includes" style="rhombus;whiteSpace=wrap;html=1;fillColor=#008a00;fontColor=#ffffff;strokeColor=#005700;" parent="1" vertex="1">
          <mxGeometry x="1175" y="570" width="90" height="80" as="geometry" />
        </mxCell>
        <mxCell id="fr7ok5PWlqHTc7R7XnK3-103" value="comment_id" style="ellipse;whiteSpace=wrap;html=1;fillColor=#d80073;strokeColor=#A50040;fontColor=#ffffff;" parent="1" vertex="1">
          <mxGeometry x="1310" y="680" width="110" height="60" as="geometry" />
        </mxCell>
        <mxCell id="fr7ok5PWlqHTc7R7XnK3-104" value="&lt;div&gt;timestamp&lt;/div&gt;" style="ellipse;whiteSpace=wrap;html=1;fillColor=#d80073;strokeColor=#A50040;fontColor=#ffffff;" parent="1" vertex="1">
          <mxGeometry x="1040" y="630" width="110" height="60" as="geometry" />
        </mxCell>
        <mxCell id="fr7ok5PWlqHTc7R7XnK3-105" value="description" style="ellipse;whiteSpace=wrap;html=1;fillColor=#d80073;strokeColor=#A50040;fontColor=#ffffff;" parent="1" vertex="1">
          <mxGeometry x="1310" y="820" width="110" height="60" as="geometry" />
        </mxCell>
        <mxCell id="fr7ok5PWlqHTc7R7XnK3-111" style="edgeStyle=orthogonalEdgeStyle;rounded=0;orthogonalLoop=1;jettySize=auto;html=1;exitX=1;exitY=0.5;exitDx=0;exitDy=0;endArrow=none;endFill=0;entryX=0;entryY=0.5;entryDx=0;entryDy=0;" parent="1" source="fr7ok5PWlqHTc7R7XnK3-109" target="fr7ok5PWlqHTc7R7XnK3-97" edge="1">
          <mxGeometry relative="1" as="geometry" />
        </mxCell>
        <mxCell id="fr7ok5PWlqHTc7R7XnK3-113" value="[0..*]" style="edgeLabel;html=1;align=center;verticalAlign=middle;resizable=0;points=[];" parent="fr7ok5PWlqHTc7R7XnK3-111" vertex="1" connectable="0">
          <mxGeometry x="0.4396" y="3" relative="1" as="geometry">
            <mxPoint x="97" as="offset" />
          </mxGeometry>
        </mxCell>
        <mxCell id="-icy0jHn0rvIIJYfcfx7-35" style="edgeStyle=orthogonalEdgeStyle;rounded=0;orthogonalLoop=1;jettySize=auto;html=1;exitX=0.5;exitY=1;exitDx=0;exitDy=0;endArrow=none;endFill=0;" edge="1" parent="1" source="fr7ok5PWlqHTc7R7XnK3-109" target="-icy0jHn0rvIIJYfcfx7-6">
          <mxGeometry relative="1" as="geometry" />
        </mxCell>
        <mxCell id="-icy0jHn0rvIIJYfcfx7-36" value="[0..*]" style="edgeLabel;html=1;align=center;verticalAlign=middle;resizable=0;points=[];" vertex="1" connectable="0" parent="-icy0jHn0rvIIJYfcfx7-35">
          <mxGeometry x="0.6207" y="2" relative="1" as="geometry">
            <mxPoint as="offset" />
          </mxGeometry>
        </mxCell>
        <mxCell id="fr7ok5PWlqHTc7R7XnK3-109" value="creates" style="rhombus;whiteSpace=wrap;html=1;fillColor=#008a00;fontColor=#ffffff;strokeColor=#005700;" parent="1" vertex="1">
          <mxGeometry x="720" y="570" width="90" height="80" as="geometry" />
        </mxCell>
        <mxCell id="-icy0jHn0rvIIJYfcfx7-39" style="edgeStyle=orthogonalEdgeStyle;rounded=0;orthogonalLoop=1;jettySize=auto;html=1;exitX=0.5;exitY=0;exitDx=0;exitDy=0;endArrow=none;endFill=0;" edge="1" parent="1" source="-icy0jHn0rvIIJYfcfx7-2" target="-icy0jHn0rvIIJYfcfx7-6">
          <mxGeometry relative="1" as="geometry" />
        </mxCell>
        <mxCell id="-icy0jHn0rvIIJYfcfx7-40" value="[0..*]" style="edgeLabel;html=1;align=center;verticalAlign=middle;resizable=0;points=[];" vertex="1" connectable="0" parent="-icy0jHn0rvIIJYfcfx7-39">
          <mxGeometry x="0.7374" y="-1" relative="1" as="geometry">
            <mxPoint as="offset" />
          </mxGeometry>
        </mxCell>
        <mxCell id="-icy0jHn0rvIIJYfcfx7-50" style="edgeStyle=orthogonalEdgeStyle;rounded=0;orthogonalLoop=1;jettySize=auto;html=1;exitX=0.5;exitY=1;exitDx=0;exitDy=0;endArrow=none;endFill=0;strokeColor=default;" edge="1" parent="1" source="-icy0jHn0rvIIJYfcfx7-2" target="-icy0jHn0rvIIJYfcfx7-42">
          <mxGeometry relative="1" as="geometry" />
        </mxCell>
        <mxCell id="-icy0jHn0rvIIJYfcfx7-66" value="[0..*]" style="edgeLabel;html=1;align=center;verticalAlign=middle;resizable=0;points=[];" vertex="1" connectable="0" parent="-icy0jHn0rvIIJYfcfx7-50">
          <mxGeometry x="0.8577" relative="1" as="geometry">
            <mxPoint x="-9" y="-2" as="offset" />
          </mxGeometry>
        </mxCell>
        <mxCell id="-icy0jHn0rvIIJYfcfx7-2" value="likes" style="rhombus;whiteSpace=wrap;html=1;fillColor=#008a00;fontColor=#ffffff;strokeColor=#005700;" vertex="1" parent="1">
          <mxGeometry x="720" y="960" width="90" height="80" as="geometry" />
        </mxCell>
        <mxCell id="-icy0jHn0rvIIJYfcfx7-68" style="edgeStyle=orthogonalEdgeStyle;rounded=0;orthogonalLoop=1;jettySize=auto;html=1;exitX=1;exitY=0.5;exitDx=0;exitDy=0;endArrow=none;endFill=0;shape=link;" edge="1" parent="1" source="-icy0jHn0rvIIJYfcfx7-6" target="-icy0jHn0rvIIJYfcfx7-67">
          <mxGeometry relative="1" as="geometry" />
        </mxCell>
        <mxCell id="-icy0jHn0rvIIJYfcfx7-71" value="[0..*]" style="edgeLabel;html=1;align=center;verticalAlign=middle;resizable=0;points=[];" vertex="1" connectable="0" parent="-icy0jHn0rvIIJYfcfx7-68">
          <mxGeometry x="-0.7782" y="-1" relative="1" as="geometry">
            <mxPoint as="offset" />
          </mxGeometry>
        </mxCell>
        <mxCell id="-icy0jHn0rvIIJYfcfx7-6" value="EventComment" style="rounded=1;whiteSpace=wrap;html=1;fillColor=#6a00ff;strokeColor=#3700CC;fontColor=#ffffff;" vertex="1" parent="1">
          <mxGeometry x="705" y="760" width="120" height="60" as="geometry" />
        </mxCell>
        <mxCell id="-icy0jHn0rvIIJYfcfx7-7" value="" style="edgeStyle=orthogonalEdgeStyle;rounded=0;orthogonalLoop=1;jettySize=auto;html=1;endArrow=none;endFill=0;" edge="1" parent="1" target="fr7ok5PWlqHTc7R7XnK3-87">
          <mxGeometry relative="1" as="geometry">
            <mxPoint x="679.5159090909087" y="430.02969696969694" as="sourcePoint" />
            <mxPoint x="890" y="430" as="targetPoint" />
            <Array as="points" />
          </mxGeometry>
        </mxCell>
        <mxCell id="fr7ok5PWlqHTc7R7XnK3-87" value="creates" style="rhombus;whiteSpace=wrap;html=1;fillColor=#008a00;fontColor=#ffffff;strokeColor=#005700;" parent="1" vertex="1">
          <mxGeometry x="720" y="390" width="90" height="80" as="geometry" />
        </mxCell>
        <mxCell id="-icy0jHn0rvIIJYfcfx7-10" value="likes" style="rhombus;whiteSpace=wrap;html=1;fillColor=#008a00;fontColor=#ffffff;strokeColor=#005700;" vertex="1" parent="1">
          <mxGeometry x="720" y="300" width="90" height="80" as="geometry" />
        </mxCell>
        <mxCell id="-icy0jHn0rvIIJYfcfx7-27" value="likes" style="ellipse;whiteSpace=wrap;html=1;fillColor=#d80073;strokeColor=#A50040;fontColor=#ffffff;" vertex="1" parent="1">
          <mxGeometry x="1040" y="830" width="110" height="60" as="geometry" />
        </mxCell>
        <mxCell id="-icy0jHn0rvIIJYfcfx7-33" style="edgeStyle=orthogonalEdgeStyle;rounded=0;orthogonalLoop=1;jettySize=auto;html=1;exitX=1;exitY=1;exitDx=0;exitDy=0;entryX=0.25;entryY=0;entryDx=0;entryDy=0;endArrow=none;endFill=0;" edge="1" parent="1" source="-icy0jHn0rvIIJYfcfx7-29" target="-icy0jHn0rvIIJYfcfx7-6">
          <mxGeometry relative="1" as="geometry" />
        </mxCell>
        <mxCell id="-icy0jHn0rvIIJYfcfx7-29" value="&lt;div&gt;timestamp&lt;/div&gt;" style="ellipse;whiteSpace=wrap;html=1;fillColor=#d80073;strokeColor=#A50040;fontColor=#ffffff;" vertex="1" parent="1">
          <mxGeometry x="610" y="670" width="110" height="60" as="geometry" />
        </mxCell>
        <mxCell id="-icy0jHn0rvIIJYfcfx7-37" style="edgeStyle=orthogonalEdgeStyle;rounded=0;orthogonalLoop=1;jettySize=auto;html=1;exitX=0.5;exitY=0;exitDx=0;exitDy=0;entryX=0;entryY=0.75;entryDx=0;entryDy=0;endArrow=none;endFill=0;" edge="1" parent="1" source="-icy0jHn0rvIIJYfcfx7-30" target="-icy0jHn0rvIIJYfcfx7-6">
          <mxGeometry relative="1" as="geometry" />
        </mxCell>
        <mxCell id="-icy0jHn0rvIIJYfcfx7-30" value="likes" style="ellipse;whiteSpace=wrap;html=1;fillColor=#d80073;strokeColor=#A50040;fontColor=#ffffff;" vertex="1" parent="1">
          <mxGeometry x="590" y="850" width="110" height="60" as="geometry" />
        </mxCell>
        <mxCell id="-icy0jHn0rvIIJYfcfx7-38" style="edgeStyle=orthogonalEdgeStyle;rounded=0;orthogonalLoop=1;jettySize=auto;html=1;exitX=0.5;exitY=0;exitDx=0;exitDy=0;entryX=0.795;entryY=1.034;entryDx=0;entryDy=0;endArrow=none;endFill=0;entryPerimeter=0;" edge="1" parent="1" source="-icy0jHn0rvIIJYfcfx7-31" target="-icy0jHn0rvIIJYfcfx7-6">
          <mxGeometry relative="1" as="geometry" />
        </mxCell>
        <mxCell id="-icy0jHn0rvIIJYfcfx7-31" value="description" style="ellipse;whiteSpace=wrap;html=1;fillColor=#d80073;strokeColor=#A50040;fontColor=#ffffff;" vertex="1" parent="1">
          <mxGeometry x="780" y="870" width="110" height="60" as="geometry" />
        </mxCell>
        <mxCell id="-icy0jHn0rvIIJYfcfx7-34" style="edgeStyle=orthogonalEdgeStyle;rounded=0;orthogonalLoop=1;jettySize=auto;html=1;exitX=0;exitY=1;exitDx=0;exitDy=0;entryX=0.75;entryY=0;entryDx=0;entryDy=0;endArrow=none;endFill=0;" edge="1" parent="1" source="-icy0jHn0rvIIJYfcfx7-32" target="-icy0jHn0rvIIJYfcfx7-6">
          <mxGeometry relative="1" as="geometry" />
        </mxCell>
        <mxCell id="-icy0jHn0rvIIJYfcfx7-32" value="event_comment_id" style="ellipse;whiteSpace=wrap;html=1;fillColor=#d80073;strokeColor=#A50040;fontColor=#ffffff;" vertex="1" parent="1">
          <mxGeometry x="840" y="680" width="110" height="60" as="geometry" />
        </mxCell>
        <mxCell id="-icy0jHn0rvIIJYfcfx7-52" style="edgeStyle=orthogonalEdgeStyle;rounded=0;orthogonalLoop=1;jettySize=auto;html=1;exitX=0.5;exitY=0;exitDx=0;exitDy=0;endArrow=none;endFill=0;" edge="1" parent="1" source="-icy0jHn0rvIIJYfcfx7-42" target="-icy0jHn0rvIIJYfcfx7-48">
          <mxGeometry relative="1" as="geometry" />
        </mxCell>
        <mxCell id="-icy0jHn0rvIIJYfcfx7-53" style="edgeStyle=orthogonalEdgeStyle;rounded=0;orthogonalLoop=1;jettySize=auto;html=1;exitX=0.25;exitY=0;exitDx=0;exitDy=0;endArrow=none;endFill=0;" edge="1" parent="1" source="-icy0jHn0rvIIJYfcfx7-42" target="-icy0jHn0rvIIJYfcfx7-47">
          <mxGeometry relative="1" as="geometry" />
        </mxCell>
        <mxCell id="-icy0jHn0rvIIJYfcfx7-55" style="edgeStyle=orthogonalEdgeStyle;rounded=0;orthogonalLoop=1;jettySize=auto;html=1;exitX=0.75;exitY=0;exitDx=0;exitDy=0;endArrow=none;endFill=0;" edge="1" parent="1" source="-icy0jHn0rvIIJYfcfx7-42" target="-icy0jHn0rvIIJYfcfx7-46">
          <mxGeometry relative="1" as="geometry" />
        </mxCell>
        <mxCell id="-icy0jHn0rvIIJYfcfx7-42" value="EventPost" style="rounded=1;whiteSpace=wrap;html=1;fillColor=#6a00ff;strokeColor=#3700CC;fontColor=#ffffff;" vertex="1" parent="1">
          <mxGeometry x="1160" y="1030" width="120" height="60" as="geometry" />
        </mxCell>
        <mxCell id="-icy0jHn0rvIIJYfcfx7-58" style="edgeStyle=orthogonalEdgeStyle;rounded=0;orthogonalLoop=1;jettySize=auto;html=1;entryX=0;entryY=0.5;entryDx=0;entryDy=0;endArrow=none;endFill=0;" edge="1" parent="1" source="-icy0jHn0rvIIJYfcfx7-43" target="-icy0jHn0rvIIJYfcfx7-42">
          <mxGeometry relative="1" as="geometry" />
        </mxCell>
        <mxCell id="-icy0jHn0rvIIJYfcfx7-62" style="edgeStyle=orthogonalEdgeStyle;rounded=0;orthogonalLoop=1;jettySize=auto;html=1;exitX=0.5;exitY=1;exitDx=0;exitDy=0;endArrow=none;endFill=0;" edge="1" parent="1" source="-icy0jHn0rvIIJYfcfx7-43" target="-icy0jHn0rvIIJYfcfx7-59">
          <mxGeometry relative="1" as="geometry" />
        </mxCell>
        <mxCell id="-icy0jHn0rvIIJYfcfx7-43" value="location" style="ellipse;whiteSpace=wrap;html=1;fillColor=#d80073;strokeColor=#A50040;fontColor=#ffffff;" vertex="1" parent="1">
          <mxGeometry x="1010" y="1100" width="110" height="60" as="geometry" />
        </mxCell>
        <mxCell id="-icy0jHn0rvIIJYfcfx7-56" style="edgeStyle=orthogonalEdgeStyle;rounded=0;orthogonalLoop=1;jettySize=auto;html=1;exitX=0.5;exitY=0;exitDx=0;exitDy=0;entryX=1;entryY=0.5;entryDx=0;entryDy=0;endArrow=none;endFill=0;" edge="1" parent="1" source="-icy0jHn0rvIIJYfcfx7-44" target="-icy0jHn0rvIIJYfcfx7-42">
          <mxGeometry relative="1" as="geometry" />
        </mxCell>
        <mxCell id="-icy0jHn0rvIIJYfcfx7-44" value="description" style="ellipse;whiteSpace=wrap;html=1;fillColor=#d80073;strokeColor=#A50040;fontColor=#ffffff;" vertex="1" parent="1">
          <mxGeometry x="1320" y="1100" width="110" height="60" as="geometry" />
        </mxCell>
        <mxCell id="-icy0jHn0rvIIJYfcfx7-46" value="likes" style="ellipse;whiteSpace=wrap;html=1;fillColor=#d80073;strokeColor=#A50040;fontColor=#ffffff;" vertex="1" parent="1">
          <mxGeometry x="1320" y="930" width="110" height="60" as="geometry" />
        </mxCell>
        <mxCell id="-icy0jHn0rvIIJYfcfx7-47" value="timestamp" style="ellipse;whiteSpace=wrap;html=1;fillColor=#d80073;strokeColor=#A50040;fontColor=#ffffff;" vertex="1" parent="1">
          <mxGeometry x="1030" y="930" width="110" height="60" as="geometry" />
        </mxCell>
        <mxCell id="-icy0jHn0rvIIJYfcfx7-48" value="&lt;div&gt;enddate&lt;/div&gt;" style="ellipse;whiteSpace=wrap;html=1;fillColor=#d80073;strokeColor=#A50040;fontColor=#ffffff;" vertex="1" parent="1">
          <mxGeometry x="1165" y="910" width="110" height="60" as="geometry" />
        </mxCell>
        <mxCell id="-icy0jHn0rvIIJYfcfx7-57" style="edgeStyle=orthogonalEdgeStyle;rounded=0;orthogonalLoop=1;jettySize=auto;html=1;exitX=0.5;exitY=0;exitDx=0;exitDy=0;endArrow=none;endFill=0;" edge="1" parent="1" source="-icy0jHn0rvIIJYfcfx7-49" target="-icy0jHn0rvIIJYfcfx7-42">
          <mxGeometry relative="1" as="geometry" />
        </mxCell>
        <mxCell id="-icy0jHn0rvIIJYfcfx7-49" value="startdate" style="ellipse;whiteSpace=wrap;html=1;fillColor=#d80073;strokeColor=#A50040;fontColor=#ffffff;" vertex="1" parent="1">
          <mxGeometry x="1165" y="1130" width="110" height="60" as="geometry" />
        </mxCell>
        <mxCell id="-icy0jHn0rvIIJYfcfx7-59" value="name" style="ellipse;whiteSpace=wrap;html=1;fillColor=#fff2cc;strokeColor=#d6b656;" vertex="1" parent="1">
          <mxGeometry x="1010" y="1190" width="110" height="60" as="geometry" />
        </mxCell>
        <mxCell id="-icy0jHn0rvIIJYfcfx7-64" style="edgeStyle=orthogonalEdgeStyle;rounded=0;orthogonalLoop=1;jettySize=auto;html=1;exitX=1;exitY=0;exitDx=0;exitDy=0;entryX=0;entryY=1;entryDx=0;entryDy=0;endArrow=none;endFill=0;" edge="1" parent="1" source="-icy0jHn0rvIIJYfcfx7-60" target="-icy0jHn0rvIIJYfcfx7-43">
          <mxGeometry relative="1" as="geometry">
            <Array as="points">
              <mxPoint x="990" y="1199" />
              <mxPoint x="990" y="1151" />
            </Array>
          </mxGeometry>
        </mxCell>
        <mxCell id="-icy0jHn0rvIIJYfcfx7-60" value="longitude" style="ellipse;whiteSpace=wrap;html=1;fillColor=#fff2cc;strokeColor=#d6b656;" vertex="1" parent="1">
          <mxGeometry x="870" y="1190" width="110" height="60" as="geometry" />
        </mxCell>
        <mxCell id="-icy0jHn0rvIIJYfcfx7-63" style="edgeStyle=orthogonalEdgeStyle;rounded=0;orthogonalLoop=1;jettySize=auto;html=1;exitX=1;exitY=0.5;exitDx=0;exitDy=0;endArrow=none;endFill=0;" edge="1" parent="1" source="-icy0jHn0rvIIJYfcfx7-61" target="-icy0jHn0rvIIJYfcfx7-43">
          <mxGeometry relative="1" as="geometry" />
        </mxCell>
        <mxCell id="-icy0jHn0rvIIJYfcfx7-61" value="latitude" style="ellipse;whiteSpace=wrap;html=1;fillColor=#fff2cc;strokeColor=#d6b656;" vertex="1" parent="1">
          <mxGeometry x="840" y="1100" width="110" height="60" as="geometry" />
        </mxCell>
        <mxCell id="-icy0jHn0rvIIJYfcfx7-69" style="edgeStyle=orthogonalEdgeStyle;rounded=0;orthogonalLoop=1;jettySize=auto;html=1;entryX=0;entryY=0.25;entryDx=0;entryDy=0;endArrow=none;endFill=0;" edge="1" parent="1" source="-icy0jHn0rvIIJYfcfx7-67" target="-icy0jHn0rvIIJYfcfx7-42">
          <mxGeometry relative="1" as="geometry">
            <Array as="points">
              <mxPoint x="1000" y="920" />
              <mxPoint x="1000" y="1045" />
            </Array>
          </mxGeometry>
        </mxCell>
        <mxCell id="-icy0jHn0rvIIJYfcfx7-70" value="1" style="edgeLabel;html=1;align=center;verticalAlign=middle;resizable=0;points=[];" vertex="1" connectable="0" parent="-icy0jHn0rvIIJYfcfx7-69">
          <mxGeometry x="0.9111" y="1" relative="1" as="geometry">
            <mxPoint as="offset" />
          </mxGeometry>
        </mxCell>
        <mxCell id="-icy0jHn0rvIIJYfcfx7-67" value="includes" style="rhombus;whiteSpace=wrap;html=1;fillColor=#008a00;fontColor=#ffffff;strokeColor=#005700;" vertex="1" parent="1">
          <mxGeometry x="890" y="880" width="90" height="80" as="geometry" />
        </mxCell>
      </root>
    </mxGraphModel>
  </diagram>
</mxfile>
